<svg width="14" height="14" viewBox="0 0 14 14" fill="none" xmlns="http://www.w3.org/2000/svg">
<path d="M2.75581 10.3324C2.94995 9.5228 3.67854 8.92104 4.54768 8.92104C5.56533 8.92104 6.39029 9.74601 6.39029 10.7637C6.39029 11.7813 5.56533 12.6063 4.54768 12.6063C3.67854 12.6063 2.94995 12.0045 2.75581 11.1949H1.72495C1.48678 11.1949 1.2937 11.0018 1.2937 10.7637C1.2937 10.5255 1.48678 10.3324 1.72495 10.3324H2.75581ZM6.51944 6.56877C6.71358 5.75916 7.44218 5.1574 8.31132 5.1574C9.32896 5.1574 10.1539 5.98237 10.1539 7.00002C10.1539 8.01767 9.32896 8.84263 8.31132 8.84263C7.44218 8.84263 6.71358 8.24088 6.51944 7.43127H1.72495C1.48678 7.43127 1.2937 7.23819 1.2937 7.00002C1.2937 6.76185 1.48678 6.56877 1.72495 6.56877H6.51944ZM2.75581 2.80513C2.94995 1.99552 3.67854 1.39377 4.54768 1.39377C5.56533 1.39377 6.39029 2.21873 6.39029 3.23638C6.39029 4.25403 5.56533 5.079 4.54768 5.079C3.67854 5.079 2.94995 4.47724 2.75581 3.66763H1.72495C1.48678 3.66763 1.2937 3.47456 1.2937 3.23638C1.2937 2.99821 1.48678 2.80513 1.72495 2.80513H2.75581ZM7.84086 3.66763C7.60269 3.66763 7.40961 3.47456 7.40961 3.23638C7.40961 2.99821 7.60269 2.80513 7.84086 2.80513H12.075C12.3131 2.80513 12.5062 2.99821 12.5062 3.23638C12.5062 3.47456 12.3131 3.66763 12.075 3.66763H7.84086ZM11.6045 7.43127C11.3663 7.43127 11.1732 7.23819 11.1732 7.00002C11.1732 6.76185 11.3663 6.56877 11.6045 6.56877H12.075C12.3131 6.56877 12.5062 6.76185 12.5062 7.00002C12.5062 7.23819 12.3131 7.43127 12.075 7.43127H11.6045ZM7.84086 11.1949C7.60269 11.1949 7.40961 11.0018 7.40961 10.7637C7.40961 10.5255 7.60269 10.3324 7.84086 10.3324H12.075C12.3131 10.3324 12.5062 10.5255 12.5062 10.7637C12.5062 11.0018 12.3131 11.1949 12.075 11.1949H7.84086ZM4.54768 4.2165C5.08898 4.2165 5.52779 3.77768 5.52779 3.23638C5.52779 2.69508 5.08898 2.25627 4.54768 2.25627C4.00638 2.25627 3.56756 2.69508 3.56756 3.23638C3.56756 3.77768 4.00638 4.2165 4.54768 4.2165ZM8.31132 7.98013C8.85262 7.98013 9.29143 7.54132 9.29143 7.00002C9.29143 6.45872 8.85262 6.01991 8.31132 6.01991C7.77001 6.01991 7.3312 6.45872 7.3312 7.00002C7.3312 7.54132 7.77001 7.98013 8.31132 7.98013ZM4.54768 11.7438C5.08898 11.7438 5.52779 11.305 5.52779 10.7637C5.52779 10.2224 5.08898 9.78354 4.54768 9.78354C4.00638 9.78354 3.56756 10.2224 3.56756 10.7637C3.56756 11.305 4.00638 11.7438 4.54768 11.7438Z" fill="#0052B4"/>
</svg>
