<svg width="20" height="20" viewBox="0 0 20 20" fill="none" xmlns="http://www.w3.org/2000/svg">
<path d="M16.0821 11.2779C15.3607 9.51829 14.9999 7.66378 14.9999 5.71432C14.9999 4.48668 14.643 3.51207 13.9289 2.79026C13.2143 2.06849 12.2321 1.63309 10.9821 1.48435C11.0415 1.35051 11.0712 1.21287 11.0712 1.07148C11.0712 0.77384 10.9671 0.52065 10.7588 0.312491C10.5506 0.104099 10.2976 0 9.99993 0C9.70245 0 9.44942 0.104099 9.24102 0.312491C9.03267 0.520806 8.92857 0.77384 8.92857 1.07148C8.92857 1.21287 8.95828 1.35039 9.01789 1.48435C7.76789 1.63325 6.7857 2.06845 6.07143 2.79026C5.3572 3.51203 5.00011 4.48664 5.00011 5.71432C5.00011 7.66378 4.63934 9.51829 3.91753 11.2779C3.19576 13.0376 2.12811 14.5165 0.714355 15.7144C0.714355 16.1012 0.855747 16.4361 1.13849 16.7188C1.42119 17.0014 1.75597 17.143 2.143 17.143H7.14299C7.14299 17.9317 7.4219 18.6051 7.97996 19.163C8.53806 19.7209 9.21147 20 10.0001 20C10.7888 20 11.4622 19.7209 12.0201 19.163C12.578 18.6051 12.8571 17.9317 12.8571 17.143H17.8571C18.244 17.143 18.5791 17.0017 18.8615 16.7188C19.1443 16.4361 19.2857 16.1012 19.2857 15.7144C17.8722 14.5165 16.8044 13.0376 16.0821 11.2779ZM10.0001 19.107C9.45696 19.107 8.99362 18.9157 8.61049 18.5325C8.22736 18.1492 8.03574 17.6859 8.03574 17.1427C8.03574 17.0236 8.09531 16.9641 8.21431 16.9641C8.33338 16.9641 8.39295 17.0236 8.39295 17.1427C8.39295 17.5817 8.55099 17.9593 8.8672 18.2756C9.18348 18.592 9.56102 18.75 10 18.75C10.1191 18.75 10.1789 18.8098 10.1789 18.9286C10.179 19.0477 10.1192 19.107 10.0001 19.107ZM2.75685 15.7144C3.97714 14.3676 4.89409 12.8368 5.5079 11.1218C6.1217 9.4068 6.42876 7.60432 6.42876 5.71448C6.42876 3.80971 7.61915 2.85738 10.0001 2.85738C12.381 2.85738 13.5715 3.80971 13.5715 5.71448C13.5715 7.60432 13.8784 9.4068 14.4922 11.1218C15.1058 12.8369 16.0233 14.3676 17.2434 15.7144H2.75685Z" fill="black"/>
</svg>
